# xmcd CD database file
#
# Track frame offsets:
#	182
#	9912
#	18620
#	28330
#	47052
#	55580
#	65432
#	78365
#	88865
#	105132
#	117980
#	128617
#	140527
#	151805
#	162450
#	168517
#	180652
#	191792
#	198540
#	207195
#
# Disc length: 2898 seconds
#
# Revision: 2
# Processed by: cddbd v1.4PL0 Copyright (c) Steve Scherf et al.
# Submitted via: CDex 1.50Beta7
#
DISCID=0b0b5014
DTITLE=Waylon Jennings - Phase One: The Early Years 1958 - 1964
DYEAR=1900
DGENRE=Country
TTITLE0=When Sin Stops
TTITLE1=Jole Blon
TTITLE2=My Baby Walks All Over Me
TTITLE3=The Stage (Stars In Heaven)
TTITLE4=Rave On
TTITLE5=Love Denied
TTITLE6=Four Strong Winds
TTITLE7=Just To Satisfy You
TTITLE8=The House Of The Rising Sun
TTITLE9=I'm Coming Home
TTITLE10=Sing The Girls A Song, Bill
TTITLE11=Crying
TTITLE12=Sally Was A Good Old Girl
TTITLE13=Burning Memories
TTITLE14=Big Mamou
TTITLE15=Don't Think Twice, It's Alright
TTITLE16=Dream Baby
TTITLE17=It's So Easy
TTITLE18=Love's Gonna Live Here Again
TTITLE19=White Lightin'
EXTD=
EXTT0=
EXTT1=
EXTT2=
EXTT3=
EXTT4=
EXTT5=
EXTT6=
EXTT7=
EXTT8=
EXTT9=
EXTT10=
EXTT11=
EXTT12=
EXTT13=
EXTT14=
EXTT15=
EXTT16=
EXTT17=
EXTT18=
EXTT19=
PLAYORDER=
